<?xml version="1.0" encoding="utf-8"?>
<!-- Generator: Adobe Illustrator 25.4.1, SVG Export Plug-In . SVG Version: 6.00 Build 0)  -->
<svg version="1.1" id="Ebene_1" xmlns="http://www.w3.org/2000/svg" xmlns:xlink="http://www.w3.org/1999/xlink" x="0px" y="0px"
	 viewBox="0 0 841.9 595.3" style="enable-background:new 0 0 841.9 595.3;" xml:space="preserve">
<style type="text/css">
	.st0{fill:#46A5A5;}
</style>
<g>
	<path class="st0" d="M425,311.9c-0.8,0.2-1.5,0.6-1.9,1.2c-0.4,0.6-0.6,1.4-0.6,2.5c0,0.8,0.1,1.5,0.3,2c0.2,0.5,0.6,1,1,1.3
		c0.5,0.3,1.1,0.6,2,0.8l4.1,1c0.7,0.2,1.2,0.4,1.7,0.6c0.4,0.2,0.6,0.7,0.6,1.3c0,0.5-0.1,0.9-0.4,1.2c-0.2,0.3-0.7,0.4-1.3,0.5
		c-0.6,0.1-1.4,0.1-2.5,0.1h-1.8c-0.6,0-1.2,0-1.7,0c-0.5,0-1,0-1.5-0.1l-0.2,2c1.3,0.2,2.4,0.3,3.5,0.4c1.1,0,1.9,0.1,2.4,0.1
		c1.4,0,2.6-0.1,3.5-0.3c0.9-0.2,1.6-0.6,2.1-1.2c0.4-0.6,0.7-1.5,0.7-2.7c0-1.2-0.3-2.2-0.8-2.7c-0.6-0.6-1.4-1-2.6-1.3l-4.1-1
		c-0.7-0.2-1.2-0.3-1.6-0.6c-0.3-0.2-0.5-0.7-0.5-1.4c0-0.6,0.1-1,0.3-1.2c0.2-0.2,0.6-0.4,1.1-0.4c0.5-0.1,1.2-0.1,2.1-0.1
		c0.9,0,1.8,0,2.8,0c0.9,0,1.9,0.1,2.8,0.1l0.2-2c-0.6-0.1-1.3-0.2-2-0.2c-0.7-0.1-1.5-0.1-2.2-0.1c-0.7,0-1.4-0.1-2.1-0.1
		C426.9,311.6,425.8,311.7,425,311.9 M410,311.9c-0.8,0.2-1.5,0.6-1.9,1.2c-0.4,0.6-0.6,1.4-0.6,2.5c0,0.8,0.1,1.5,0.3,2
		c0.2,0.5,0.6,1,1,1.3c0.5,0.3,1.1,0.6,2,0.8l4.1,1c0.7,0.2,1.2,0.4,1.7,0.6c0.4,0.2,0.6,0.7,0.6,1.3c0,0.5-0.1,0.9-0.4,1.2
		c-0.2,0.3-0.7,0.4-1.3,0.5c-0.6,0.1-1.4,0.1-2.5,0.1h-1.8c-0.6,0-1.2,0-1.7,0c-0.5,0-1,0-1.5-0.1l-0.2,2c1.3,0.2,2.4,0.3,3.5,0.4
		c1.1,0,1.9,0.1,2.4,0.1c1.4,0,2.6-0.1,3.5-0.3c0.9-0.2,1.6-0.6,2.1-1.2c0.4-0.6,0.7-1.5,0.7-2.7c0-1.2-0.3-2.2-0.8-2.7
		c-0.6-0.6-1.4-1-2.6-1.3l-4.1-1c-0.7-0.2-1.2-0.3-1.6-0.6c-0.3-0.2-0.5-0.7-0.5-1.4c0-0.6,0.1-1,0.3-1.2c0.2-0.2,0.6-0.4,1.1-0.4
		c0.5-0.1,1.2-0.1,2.1-0.1c0.9,0,1.8,0,2.8,0c0.9,0,1.9,0.1,2.8,0.1l0.2-2c-0.6-0.1-1.3-0.2-2-0.2c-0.7-0.1-1.5-0.1-2.2-0.1
		c-0.7,0-1.4-0.1-2.1-0.1C411.9,311.6,410.8,311.7,410,311.9 M402.1,305.7c-0.6,0-0.9,0.3-0.9,0.9v1.7c0,0.6,0.3,0.9,0.9,0.9h1.3
		c0.6,0,0.9-0.3,0.9-0.9v-1.7c0-0.6-0.3-0.9-0.9-0.9H402.1z M401.4,326.5h2.8V312h-2.8V326.5z M395.5,312l-2.8,10.4
		c-0.1,0.4-0.2,0.8-0.2,1.1s-0.1,0.7-0.2,1.1h-0.4c-0.1-0.4-0.2-0.7-0.2-1.1c-0.1-0.4-0.2-0.7-0.2-1.1l-2.2-9.5
		c-0.1-0.3-0.2-0.5-0.4-0.7c-0.2-0.2-0.4-0.3-0.7-0.3h-2.4c-0.3,0-0.5,0.1-0.7,0.3c-0.2,0.2-0.3,0.4-0.3,0.6l-2.3,9.6
		c-0.1,0.4-0.2,0.7-0.3,1.1c-0.1,0.4-0.2,0.7-0.3,1.1h-0.4c-0.1-0.4-0.1-0.7-0.2-1.1c-0.1-0.4-0.2-0.7-0.2-1.1l-2.8-10.4h-3
		l4.1,13.7c0.1,0.2,0.2,0.4,0.4,0.6c0.2,0.1,0.4,0.2,0.7,0.2h2.4c0.3,0,0.5-0.1,0.7-0.3c0.2-0.2,0.3-0.4,0.4-0.6l2.2-9.6
		c0.1-0.4,0.2-0.8,0.3-1.1c0.1-0.4,0.2-0.8,0.2-1.2h0.4c0.1,0.4,0.2,0.8,0.3,1.2c0.1,0.4,0.1,0.8,0.2,1.1l2.2,9.6
		c0,0.3,0.2,0.5,0.4,0.6c0.2,0.2,0.4,0.3,0.7,0.3h2.5c0.3,0,0.5-0.1,0.7-0.2c0.2-0.1,0.3-0.3,0.4-0.6l4.1-13.7H395.5z M362.9,311.9
		c-0.8,0.2-1.5,0.6-1.9,1.2c-0.4,0.6-0.6,1.4-0.6,2.5c0,0.8,0.1,1.5,0.3,2c0.2,0.5,0.6,1,1,1.3c0.5,0.3,1.1,0.6,2,0.8l4.1,1
		c0.7,0.2,1.2,0.4,1.7,0.6c0.4,0.2,0.6,0.7,0.6,1.3c0,0.5-0.1,0.9-0.4,1.2c-0.2,0.3-0.7,0.4-1.3,0.5c-0.6,0.1-1.4,0.1-2.5,0.1h-1.8
		c-0.6,0-1.2,0-1.7,0c-0.5,0-1,0-1.5-0.1l-0.2,2c1.3,0.2,2.4,0.3,3.5,0.4c1.1,0,1.9,0.1,2.4,0.1c1.4,0,2.6-0.1,3.5-0.3
		c0.9-0.2,1.6-0.6,2.1-1.2c0.4-0.6,0.7-1.5,0.7-2.7c0-1.2-0.3-2.2-0.8-2.7c-0.6-0.6-1.4-1-2.6-1.3l-4.1-1c-0.7-0.2-1.2-0.3-1.6-0.6
		c-0.3-0.2-0.5-0.7-0.5-1.4c0-0.6,0.1-1,0.3-1.2c0.2-0.2,0.6-0.4,1.1-0.4c0.5-0.1,1.2-0.1,2.1-0.1c0.9,0,1.8,0,2.8,0
		c0.9,0,1.9,0.1,2.8,0.1l0.2-2c-0.6-0.1-1.3-0.2-2-0.2c-0.7-0.1-1.5-0.1-2.2-0.1c-0.7,0-1.4-0.1-2.1-0.1
		C364.9,311.6,363.7,311.7,362.9,311.9"/>
	<g>
		<path class="st0" d="M378.3,341.2c-1,0-2,0.2-3,0.7c-0.9,0.4-1.8,1-2.8,1.9c-0.2-0.6-0.4-1.2-0.8-1.6c-0.7-0.7-1.6-1-2.9-1
			c-1.1,0-2.1,0.2-3,0.7c-0.9,0.4-1.9,1.1-2.8,1.9l-0.2-2.3h-2.4v14.5h2.9v-10.4c0.6-0.4,1.2-0.8,1.7-1.1c0.5-0.3,1-0.6,1.5-0.7
			c0.4-0.1,0.9-0.2,1.4-0.2c0.7,0,1.2,0.2,1.6,0.6c0.4,0.4,0.5,1,0.5,1.9v10.1h2.8v-10.4c0.6-0.4,1.2-0.8,1.6-1.1
			c0.5-0.3,1-0.6,1.5-0.7c0.4-0.2,0.9-0.2,1.4-0.2c0.8,0,1.3,0.2,1.6,0.6c0.3,0.4,0.5,1,0.5,1.8v10.1h2.9v-10.9c0-1.3-0.3-2.3-1-3
			S379.6,341.2,378.3,341.2z"/>
		<path class="st0" d="M408.1,341.9c-1,0.5-2,1.1-3,1.9l-0.3-2.3h-2.2v14.5h2.9v-10.5c1.1-0.5,2-0.9,2.8-1.2
			c0.8-0.3,1.7-0.5,2.5-0.5h0.9l0.3-2.7h-0.7C410.2,341.2,409.2,341.4,408.1,341.9z"/>
		<path class="st0" d="M422,348.5c-0.2-0.2-0.4-0.4-0.5-0.5v-0.1c0.1-0.1,0.3-0.3,0.5-0.5c0.2-0.2,0.4-0.4,0.5-0.6l4.4-5.3h-3.3
			l-4.4,5.3h-1.9c0-0.2,0.1-0.5,0.1-0.7c0.1-0.5,0.1-1.1,0.1-1.8l0-9.1h-2.9v20.8h2.9v-4.9c0-0.5,0-1.1-0.1-1.6c0-0.2,0-0.4-0.1-0.7
			h1.9l4.8,7.2h3.3l-4.9-6.9C422.4,349,422.2,348.7,422,348.5z"/>
		<path class="st0" d="M396.2,341.6c-0.8-0.3-1.7-0.4-2.8-0.4c-0.7,0-1.5,0-2.4,0.1c-0.9,0.1-1.7,0.1-2.5,0.2
			c-0.8,0.1-1.6,0.2-2.2,0.3l0.3,2.1c1.1-0.1,2.2-0.2,3.4-0.2s2.1-0.1,2.8-0.1c1.1,0,1.9,0.2,2.2,0.6c0.4,0.4,0.6,1,0.6,1.8v1.2
			h-5.9c-1.3,0-2.3,0.3-3,1c-0.7,0.6-1.1,1.5-1.1,2.7v1.6c0,0.9,0.2,1.6,0.6,2.2c0.4,0.6,0.9,1.1,1.6,1.4c0.7,0.3,1.4,0.5,2.3,0.5
			c0.8,0,1.6-0.1,2.2-0.4c0.7-0.2,1.3-0.5,1.9-0.9c0.6-0.4,1-0.7,1.4-1.1c0.1-0.1,0.2-0.2,0.3-0.3l0.3,2.4h2.3V346
			c0-1.2-0.2-2.2-0.6-2.9C397.5,342.4,396.9,341.9,396.2,341.6z M394.6,352.7c-0.7,0.4-1.4,0.7-2.1,1c-0.7,0.2-1.3,0.3-1.9,0.3
			c-0.8,0-1.3-0.2-1.7-0.5c-0.3-0.3-0.5-0.8-0.5-1.6v-0.9c0-0.6,0.1-1,0.4-1.4c0.3-0.3,0.7-0.5,1.4-0.5l5.3,0v2.8
			C395.3,352.3,394.9,352.5,394.6,352.7z"/>
		<path class="st0" d="M441.1,349c0.6-0.7,0.9-1.7,0.8-3c0-1.6-0.5-2.8-1.5-3.6c-1-0.8-2.6-1.2-4.9-1.2c-1.6,0-2.9,0.2-3.9,0.7
			c-1,0.5-1.8,1.3-2.2,2.4s-0.7,2.6-0.7,4.5c0,1.8,0.2,3.3,0.7,4.4s1.2,1.9,2.3,2.5c1,0.5,2.4,0.8,4.1,0.8c0.6,0,1.3,0,2-0.1
			c0.7-0.1,1.4-0.2,2.1-0.3c0.7-0.1,1.2-0.3,1.7-0.5l-0.3-1.9c-0.8,0.1-1.6,0.2-2.6,0.3s-1.8,0.1-2.5,0.1c-1.1,0-1.9-0.1-2.6-0.4
			c-0.6-0.3-1.1-0.8-1.4-1.6c-0.2-0.5-0.3-1.1-0.4-1.9h6.4C439.6,350.1,440.5,349.7,441.1,349z M431.8,348c0-1.1,0.1-1.9,0.3-2.5
			c0.2-0.7,0.6-1.3,1.2-1.5c0.6-0.3,1.4-0.4,2.4-0.4c1.2,0,2.1,0.2,2.6,0.6c0.5,0.4,0.8,1,0.8,1.9c0,0.5-0.1,1-0.3,1.4
			c-0.2,0.4-0.6,0.6-1.3,0.6H431.8z"/>
		<path class="st0" d="M493.6,341.6c-0.8-0.3-1.7-0.4-2.8-0.4c-0.7,0-1.5,0-2.4,0.1s-1.7,0.1-2.5,0.2c-0.8,0.1-1.6,0.2-2.2,0.3
			l0.3,2.1c1.1-0.1,2.2-0.2,3.4-0.2c1.1-0.1,2.1-0.1,2.8-0.1c1.1,0,1.9,0.2,2.2,0.6c0.4,0.4,0.6,1,0.6,1.8v1.2h-5.9
			c-1.3,0-2.3,0.3-3,1c-0.7,0.6-1.1,1.5-1.1,2.7v1.6c0,0.9,0.2,1.6,0.6,2.2c0.4,0.6,0.9,1.1,1.6,1.4c0.7,0.3,1.4,0.5,2.3,0.5
			c0.8,0,1.6-0.1,2.2-0.4c0.7-0.2,1.3-0.5,1.9-0.9c0.6-0.4,1-0.7,1.4-1.1c0.1-0.1,0.2-0.2,0.3-0.3l0.3,2.4h2.3V346
			c0-1.2-0.2-2.2-0.6-2.9C494.9,342.4,494.3,341.9,493.6,341.6z M492,352.7c-0.7,0.4-1.4,0.7-2.1,1c-0.7,0.2-1.3,0.3-1.9,0.3
			c-0.8,0-1.3-0.2-1.7-0.5c-0.3-0.3-0.5-0.8-0.5-1.6v-0.9c0-0.6,0.1-1,0.4-1.4c0.3-0.3,0.7-0.5,1.4-0.5l5.3,0v2.8
			C492.7,352.3,492.3,352.5,492,352.7z"/>
		<path class="st0" d="M509.6,353.9c-0.6,0-1.1,0.1-1.5,0.1s-0.9,0-1.2,0c-1.1,0-2-0.1-2.6-0.4c-0.6-0.3-1.1-0.8-1.4-1.6
			c-0.3-0.8-0.4-1.8-0.4-3.2c0-1.3,0.1-2.4,0.4-3.2c0.3-0.8,0.7-1.3,1.4-1.6c0.6-0.3,1.5-0.4,2.6-0.4c0.5,0,1.1,0,1.9,0
			c0.7,0,1.4,0.1,2.1,0.1l0.4-1.8c-0.5-0.2-1-0.3-1.6-0.4c-0.6-0.1-1.2-0.2-1.7-0.2c-0.5,0-1-0.1-1.5-0.1c-1.7,0-3.1,0.2-4.1,0.7
			c-1,0.5-1.8,1.3-2.2,2.4c-0.5,1.1-0.7,2.6-0.7,4.5c0,1.9,0.2,3.4,0.7,4.5c0.5,1.1,1.2,1.9,2.2,2.4s2.4,0.7,4.1,0.7
			c0.9,0,1.8-0.1,2.7-0.2s1.7-0.3,2.4-0.6l-0.3-1.9C510.6,353.8,510.1,353.9,509.6,353.9z"/>
		<path class="st0" d="M523.6,354c-0.9,0.1-1.8,0.1-2.5,0.1c-1.1,0-1.9-0.1-2.6-0.4c-0.6-0.3-1.1-0.8-1.4-1.6
			c-0.2-0.5-0.3-1.1-0.4-1.9h6.4c1.3,0,2.3-0.4,2.8-1.1c0.6-0.7,0.9-1.7,0.8-3c0-1.6-0.5-2.8-1.5-3.6c-1-0.8-2.6-1.2-4.9-1.2
			c-1.6,0-2.9,0.2-3.9,0.7c-1,0.5-1.8,1.3-2.2,2.4s-0.7,2.6-0.7,4.5c0,1.8,0.2,3.3,0.7,4.4s1.2,1.9,2.3,2.5c1,0.5,2.4,0.8,4.1,0.8
			c0.6,0,1.3,0,2-0.1c0.7-0.1,1.4-0.2,2.1-0.3c0.7-0.1,1.2-0.3,1.7-0.5l-0.3-1.9C525.4,353.8,524.6,353.9,523.6,354z M518.2,343.9
			c0.6-0.3,1.4-0.4,2.4-0.4c1.2,0,2.1,0.2,2.6,0.6c0.5,0.4,0.8,1,0.8,1.9c0,0.5-0.1,1-0.3,1.4c-0.2,0.4-0.6,0.6-1.3,0.6h-5.7
			c0-1.1,0.1-1.9,0.3-2.5C517.2,344.8,517.6,344.2,518.2,343.9z"/>
		<path class="st0" d="M465.8,341.2c-0.7,0-1.4,0.1-2.2,0.3c-0.8,0.2-1.5,0.6-2.1,1c-0.6,0.4-1.2,0.8-1.6,1.3l-0.2-2.3h-2.4V362h2.9
			v-4.1c0-0.6,0-1.2,0-1.7c0-0.4-0.1-0.9-0.1-1.3c0.8,0.5,1.6,0.9,2.5,1.1c0.9,0.3,1.9,0.4,2.8,0.4c1.3,0,2.3-0.2,3.1-0.7
			c0.8-0.5,1.4-1.3,1.8-2.4s0.6-2.6,0.6-4.5c0-2.5-0.4-4.4-1.2-5.7C468.9,341.9,467.6,341.2,465.8,341.2z M467.5,352.1
			c-0.2,0.8-0.6,1.3-1.1,1.5c-0.5,0.3-1.1,0.4-1.9,0.4c-0.8,0-1.5-0.1-2.2-0.2c-0.7-0.2-1.4-0.4-2.2-0.6v-7.5
			c0.9-0.7,1.7-1.2,2.4-1.6c0.7-0.3,1.5-0.5,2.2-0.5c0.7,0,1.3,0.2,1.8,0.5c0.4,0.3,0.8,0.9,1,1.6c0.2,0.8,0.3,1.8,0.3,3.2
			C467.9,350.3,467.7,351.3,467.5,352.1z"/>
		<path class="st0" d="M449.8,337.3h-2.9v4.3l-2.6,0.1v2h2.6v8.7c0,1.3,0.3,2.2,1,2.9c0.7,0.7,1.6,1,2.8,1c0.3,0,0.6,0,1,0
			c0.4,0,0.9-0.1,1.3-0.1c0.4-0.1,0.8-0.1,1.1-0.2l-0.3-2.1h-2.1c-0.7,0-1.2-0.1-1.5-0.4c-0.3-0.3-0.4-0.8-0.4-1.4v-8.2h4.5v-2.1
			h-4.5V337.3z"/>
		<path class="st0" d="M479.2,353.8c-0.6,0-1.1-0.2-1.4-0.5c-0.3-0.3-0.5-0.8-0.5-1.4l0-16.7h-2.9v17.4c0,1.2,0.3,2.1,1,2.8
			c0.7,0.6,1.6,1,2.7,1c0.3,0,0.6,0,0.9,0c0.4,0,0.7-0.1,1.1-0.1c0.3-0.1,0.6-0.1,0.8-0.2l-0.3-2.1H479.2z"/>
	</g>
	<g>
		<path class="st0" d="M366.7,370.8c-1.6,0-2.8,0.2-3.8,0.5c-0.9,0.3-1.6,0.8-2,1.5c-0.4,0.7-0.6,1.6-0.6,2.7c0,1.1,0.2,1.9,0.6,2.6
			c0.3,0.5,0.8,0.9,1.4,1.2c-0.3,0.2-0.5,0.4-0.7,0.7c-0.2,0.4-0.4,0.8-0.5,1.3c-0.1,0.4,0,0.9,0.1,1.3c0.1,0.4,0.4,0.8,0.8,1.2
			c0,0,0.1,0,0.1,0.1c-0.4,0.2-0.8,0.5-1.2,0.7c-0.4,0.3-0.7,0.7-0.9,1.2c-0.2,0.4-0.3,1-0.3,1.6c0,0.8,0.1,1.5,0.4,2.1
			c0.2,0.6,0.6,1,1.2,1.4c0.5,0.3,1.3,0.6,2.2,0.7c0.9,0.1,2.1,0.2,3.4,0.2c1.7,0,3.1-0.1,4.2-0.4c1-0.3,1.8-0.7,2.2-1.4
			c0.4-0.7,0.7-1.6,0.7-2.7c0-1.2-0.3-2.2-0.8-2.8c-0.6-0.7-1.5-1.1-2.9-1.3l-5.4-0.8c-0.6-0.1-1-0.3-1.2-0.7
			c-0.2-0.3-0.2-0.7-0.1-1.1c0.1-0.2,0.2-0.4,0.3-0.6c0.8,0.2,1.8,0.3,2.9,0.3c1.6,0,2.8-0.2,3.8-0.5c0.9-0.3,1.6-0.8,2-1.5
			c0.4-0.7,0.6-1.6,0.6-2.6c0-1.1-0.2-1.9-0.6-2.6l2.1-0.2l0.1-1.5H370C369.1,370.9,368,370.8,366.7,370.8z M370.1,385.3
			c0.4,0.1,0.6,0.3,0.7,0.6c0.1,0.2,0.2,0.6,0.2,1.1c0,0.6-0.1,1.1-0.4,1.4c-0.2,0.3-0.7,0.6-1.3,0.7c-0.6,0.1-1.5,0.2-2.6,0.2
			c-1.1,0-2-0.1-2.7-0.2c-0.6-0.1-1.1-0.3-1.3-0.7c-0.2-0.3-0.4-0.8-0.4-1.5c0-0.4,0.1-0.8,0.2-1.1c0.1-0.3,0.3-0.6,0.6-0.9
			c0.2-0.2,0.4-0.4,0.6-0.6l4.7,0.6C369.3,385.1,369.8,385.2,370.1,385.3z M369.5,377.4c-0.5,0.4-1.5,0.6-2.9,0.6
			c-1.4,0-2.4-0.2-2.9-0.6s-0.8-1.1-0.8-2c0-0.9,0.3-1.6,0.8-2c0.5-0.4,1.5-0.6,2.9-0.6c1.4,0,2.3,0.2,2.9,0.6c0.5,0.4,0.8,1,0.8,2
			C370.3,376.3,370,377,369.5,377.4z"/>
		<path class="st0" d="M435.4,372.8c-0.8-1.3-2.1-2-3.8-2c-0.7,0-1.4,0.1-2.2,0.3c-0.8,0.2-1.5,0.6-2.1,1c-0.6,0.4-1.2,0.8-1.6,1.3
			l-0.2-2.3h-2.4v20.5h2.9v-4.1c0-0.6,0-1.2,0-1.7c0-0.4-0.1-0.9-0.1-1.3c0.8,0.5,1.6,0.9,2.5,1.1c0.9,0.3,1.9,0.4,2.8,0.4
			c1.2,0,2.3-0.2,3.1-0.7c0.8-0.5,1.4-1.2,1.8-2.4c0.4-1.1,0.6-2.6,0.6-4.5C436.6,376,436.2,374.1,435.4,372.8z M433.3,381.7
			c-0.2,0.8-0.6,1.3-1.1,1.5c-0.5,0.3-1.1,0.4-1.9,0.4c-0.8,0-1.5-0.1-2.2-0.2c-0.7-0.2-1.4-0.3-2.2-0.6v-7.5
			c0.9-0.7,1.7-1.2,2.4-1.6c0.7-0.3,1.5-0.5,2.2-0.5c0.7,0,1.3,0.2,1.8,0.5c0.4,0.3,0.8,0.9,1,1.6c0.2,0.8,0.3,1.8,0.3,3.2
			C433.7,379.9,433.5,380.9,433.3,381.7z"/>
		<path class="st0" d="M416.1,381.7c-1,0.6-1.8,1.1-2.5,1.4c-0.8,0.4-1.5,0.5-2.3,0.5c-0.8,0-1.4-0.2-1.7-0.5
			c-0.3-0.4-0.5-1-0.5-1.8v-10.1h-2.9v10.9c0,2.7,1.3,4,4,4c1.1,0,2.2-0.2,3.2-0.7c1-0.4,2-1,3-1.8l0.2,2.1h2.3v-14.5h-2.9V381.7z"
			/>
		<path class="st0" d="M383.1,371.5c-1,0.5-2,1.1-3,1.9l-0.3-2.3h-2.2v14.5h2.9v-10.5c1.1-0.5,2-0.9,2.8-1.2
			c0.8-0.3,1.7-0.5,2.5-0.5h0.9l0.3-2.7h-0.7C385.2,370.8,384.1,371,383.1,371.5z"/>
		<path class="st0" d="M399.9,371.5c-1-0.5-2.4-0.7-4.1-0.7c-1.7,0-3,0.2-4.1,0.7c-1,0.5-1.8,1.3-2.2,2.4c-0.5,1.1-0.7,2.6-0.7,4.5
			c0,1.9,0.2,3.4,0.7,4.5c0.5,1.1,1.2,1.9,2.2,2.4s2.4,0.7,4.1,0.7c1.7,0,3.1-0.2,4.1-0.7s1.8-1.3,2.2-2.4c0.4-1.1,0.7-2.6,0.7-4.5
			c0-1.8-0.2-3.3-0.7-4.5C401.6,372.8,400.9,372,399.9,371.5z M399.4,381.6c-0.2,0.8-0.7,1.3-1.2,1.6c-0.6,0.3-1.4,0.5-2.4,0.5
			c-1,0-1.8-0.2-2.4-0.5c-0.6-0.3-1-0.8-1.2-1.6s-0.4-1.8-0.4-3.2c0-1.4,0.1-2.4,0.4-3.2s0.6-1.3,1.2-1.6c0.6-0.3,1.4-0.5,2.4-0.5
			c1,0,1.8,0.2,2.4,0.5c0.6,0.3,1,0.9,1.2,1.6s0.4,1.8,0.4,3.2C399.7,379.8,399.6,380.9,399.4,381.6z"/>
	</g>
</g>
<rect x="338.8" y="296.9" class="st0" width="1.7" height="105"/>
<g>
	<path class="st0" d="M456.8,277.8v-36.2c0-14.8-12-26.8-26.8-26.8c-8.4,0-15.9,3.9-20.8,10c-4.9-6.1-12.4-10-20.8-10
		c-14.8,0-26.8,12-26.8,26.8v36.2h11.9v-36.2c0-8.2,6.7-14.9,14.8-14.9s14.9,6.7,14.9,14.9l0,36.4c8.5,0,11.9-2.6,11.9-9v-27.3
		c0-8.2,6.7-14.9,14.8-14.9s14.8,6.7,14.8,14.9v36.2H456.8z"/>
	<path class="st0" d="M530.6,273.8v-26.9c0-16-11.5-29.3-26.8-31.7c-1.4-0.3-3.1-0.5-5.1-0.5c0,0,0,0,0,0c0,0,0,0,0,0
		c-1,0-2,0.1-3,0.1c-17,1.5-28.4,14.9-28.4,31.3c0,17.3,14.1,30.3,31.4,30.3c3.7,0,7.4-1,10.9-2.3c0,0-0.8-3.2-2.8-7.6
		c-1.6-3.5-3-2.4-8.1-2.4c-10.8,0-19.5-7.2-19.5-18c0-5.6,2.4-10.7,6.3-14.2l0,0c3.7-3.2,8.4-5.2,13.2-5.2c11,0,20,9.2,20,20.2v27
		c0,12.6-9,20.1-20,20.1c-5.9,0-11.2-2.6-14.8-6.6c-0.5-0.5-0.9-1.1-1.3-1.6l-10.1,6.6c5.8,8.3,15.6,13.6,26.4,13.6
		C517.9,306,530.6,293,530.6,273.8"/>
	<path class="st0" d="M349,250.1c-1.6-2.2-4.2-4.1-7.3-5.5c-5.5-2.5-14.6-3.3-18.6-3.9c-6.4-1-15.3-1-14.7-7.7
		c0.6-5.9,8.3-8.2,19.6-7.3c4.8,0.4,10.8,2.8,10.8,2.8c2.5,0.9,3.8,1.5,5.8,2.5c3.2-6.6,4.9-9.9,4.9-9.9c0,0,0,0,0,0
		c-1.9-1-3.7-1.9-5.6-2.8c-1.9-0.9-4.6-1.8-7.8-2.6c-0.6-0.1-3.6-0.8-7.4-1.1c-7.6-0.5-15.5,0.3-21.3,3.4c-3,1.6-5.4,3.7-7.2,6
		c0,0.1-0.1,0.2-0.2,0.3c-2.4,3.2-3.6,7.2-3,11.3c0.7,5.6,3.3,9.4,9.1,12.2c5.1,2.5,10.9,3,17.8,3.8c7.4,0.9,16.4,2.1,16.2,8.1
		c-0.1,4.9-7.7,8.4-19.7,7.7c-9.8-0.5-15.8-6.7-17-8c-2.7,2.5-5.4,5-8.1,7.4c0.9,1.2,1.9,2.3,3,3.3c5.2,4.6,12.8,7.7,21.2,8.4
		c7.6,0.7,16.1-0.5,21.9-3.6c6.5-3.4,9.8-8.2,10.3-14.7C351.9,256.9,350.9,252.8,349,250.1"/>
</g>
</svg>
