<?xml version="1.0" encoding="UTF-8"?>
<svg width="134px" height="21px" viewBox="0 0 134 21" version="1.1" xmlns="http://www.w3.org/2000/svg" xmlns:xlink="http://www.w3.org/1999/xlink">
    <title>logo_louis_REGULAR</title>
    <g id="logo_louis_REGULAR" stroke="none" stroke-width="1" fill="none" fill-rule="evenodd">
        <path d="M11.78,17 L11.78,15.8 L5.78,15.8 L5.78,5.42 C5.78,5.19333333 5.79,5.03333333 5.81,4.94 C5.83,4.84666667 5.88,4.76 5.96,4.68 L5.96,4.68 L5.96,4.54 L4.32,4.54 L4.32,17 L11.78,17 Z" id="Path" fill="#000000" fill-rule="nonzero"></path>
        <path d="M17,7.66 C17.8266667,7.66 18.5566667,7.86333333 19.19,8.27 C19.8233333,8.67666667 20.32,9.23666667 20.68,9.95 C21.04,10.6633333 21.22,11.4866667 21.22,12.42 C21.22,13.34 21.04,14.1566667 20.68,14.87 C20.32,15.5833333 19.8233333,16.1433333 19.19,16.55 C18.5566667,16.9566667 17.8266667,17.16 17,17.16 C16.1733333,17.16 15.4433333,16.9566667 14.81,16.55 C14.1766667,16.1433333 13.68,15.5833333 13.32,14.87 C12.96,14.1566667 12.78,13.34 12.78,12.42 C12.78,11.4866667 12.96,10.6633333 13.32,9.95 C13.68,9.23666667 14.1766667,8.67666667 14.81,8.27 C15.4433333,7.86333333 16.1733333,7.66 17,7.66 Z M17,8.86 C16.48,8.86 16.0166667,9.01 15.61,9.31 C15.2033333,9.61 14.8833333,10.0266667 14.65,10.56 C14.4166667,11.0933333 14.3,11.7066667 14.3,12.4 C14.3,13.0933333 14.4166667,13.7066667 14.65,14.24 C14.8833333,14.7733333 15.2033333,15.1933333 15.61,15.5 C16.0166667,15.8066667 16.48,15.96 17,15.96 C17.5333333,15.96 18,15.8066667 18.4,15.5 C18.8,15.1933333 19.1166667,14.7733333 19.35,14.24 C19.5833333,13.7066667 19.7,13.0933333 19.7,12.4 C19.7,11.7066667 19.5833333,11.0933333 19.35,10.56 C19.1166667,10.0266667 18.8,9.61 18.4,9.31 C18,9.01 17.5333333,8.86 17,8.86 Z" id="Combined-Shape" fill="#000000" fill-rule="nonzero"></path>
        <path d="M26.42,17.22 C26.7266667,17.22 27.0166667,17.1833333 27.29,17.11 C27.5633333,17.0366667 27.8233333,16.93 28.07,16.79 C28.3166667,16.65 28.54,16.48 28.74,16.28 C28.94,16.08 29.1133333,15.8533333 29.26,15.6 C29.26,15.7466667 29.2633333,15.9 29.27,16.06 C29.2766667,16.22 29.2933333,16.3766667 29.32,16.53 C29.3466667,16.6833333 29.3933333,16.84 29.46,17 L29.46,17 L30.84,17 C30.7466667,16.76 30.69,16.5233333 30.67,16.29 C30.65,16.0566667 30.64,15.82 30.64,15.58 L30.64,15.58 L30.64,7.86 L29.24,7.86 L29.24,12.9 C29.24,13.4466667 29.1733333,13.92 29.04,14.32 C28.9066667,14.72 28.7233333,15.0466667 28.49,15.3 C28.2566667,15.5533333 27.9933333,15.7433333 27.7,15.87 C27.4066667,15.9966667 27.1,16.06 26.78,16.06 C26.5,16.06 26.2333333,16.0066667 25.98,15.9 C25.7266667,15.7933333 25.5033333,15.62 25.31,15.38 C25.1166667,15.14 24.9666667,14.82 24.86,14.42 C24.7533333,14.02 24.7,13.5333333 24.7,12.96 L24.7,12.96 L24.7,7.86 L23.3,7.86 L23.28,12.96 C23.28,13.5466667 23.33,14.0733333 23.43,14.54 C23.53,15.0066667 23.6733333,15.4066667 23.86,15.74 C24.0466667,16.0733333 24.27,16.35 24.53,16.57 C24.79,16.79 25.08,16.9533333 25.4,17.06 C25.72,17.1666667 26.06,17.22 26.42,17.22 Z" id="Path" fill="#000000" fill-rule="nonzero"></path>
        <path d="M36.98,5.94 C37.26,5.94 37.5033333,5.84 37.71,5.64 C37.9166667,5.44 38.02,5.2 38.02,4.92 C38.02,4.64 37.9166667,4.39666667 37.71,4.19 C37.5033333,3.98333333 37.26,3.88 36.98,3.88 C36.6866667,3.88 36.4433333,3.98 36.25,4.18 C36.0566667,4.38 35.96,4.62666667 35.96,4.92 C35.96,5.2 36.06,5.44 36.26,5.64 C36.46,5.84 36.7,5.94 36.98,5.94 Z" id="Path" fill="#000000" fill-rule="nonzero"></path>
        <polygon id="Path" fill="#000000" fill-rule="nonzero" points="39.92 17 39.92 15.84 37.78 15.84 37.78 7.86 34.12 7.86 34.12 9.02 36.34 9.02 36.34 15.84 34 15.84 34 17"></polygon>
        <path d="M46.02,17.2 C46.8733333,17.2 47.58,17.07 48.14,16.81 C48.7,16.55 49.1166667,16.2 49.39,15.76 C49.6633333,15.32 49.8,14.8466667 49.8,14.34 C49.8,13.9 49.6966667,13.52 49.49,13.2 C49.2833333,12.88 48.95,12.5966667 48.49,12.35 C48.03,12.1033333 47.42,11.86 46.66,11.62 C45.9666667,11.42 45.4333333,11.2233333 45.06,11.03 C44.6866667,10.8366667 44.43,10.6433333 44.29,10.45 C44.15,10.2566667 44.08,10.06 44.08,9.86 C44.08,9.47333333 44.2733333,9.18666667 44.66,9 C45.0466667,8.81333333 45.5066667,8.72 46.04,8.72 C46.4,8.72 46.7733333,8.78333333 47.16,8.91 C47.5466667,9.03666667 47.8933333,9.22 48.2,9.46 C48.3466667,9.60666667 48.4433333,9.73 48.49,9.83 C48.5366667,9.93 48.5666667,10.0333333 48.58,10.14 L48.58,10.14 L48.68,10.24 L48.82,10.08 L49.64,9.08 C49.4133333,8.84 49.1766667,8.63 48.93,8.45 C48.6833333,8.27 48.4133333,8.12 48.12,8 C47.8266667,7.88 47.5066667,7.79 47.16,7.73 C46.8133333,7.67 46.4266667,7.64 46,7.64 C45.2666667,7.64 44.65,7.73666667 44.15,7.93 C43.65,8.12333333 43.2733333,8.39 43.02,8.73 C42.7666667,9.07 42.64,9.47333333 42.64,9.94 C42.64,10.3933333 42.78,10.7966667 43.06,11.15 C43.34,11.5033333 43.74,11.8133333 44.26,12.08 C44.78,12.3466667 45.3866667,12.58 46.08,12.78 C46.5066667,12.9133333 46.8666667,13.0466667 47.16,13.18 C47.4533333,13.3133333 47.69,13.4466667 47.87,13.58 C48.05,13.7133333 48.18,13.8566667 48.26,14.01 C48.34,14.1633333 48.38,14.34 48.38,14.54 C48.38,14.8333333 48.2866667,15.09 48.1,15.31 C47.9133333,15.53 47.65,15.7 47.31,15.82 C46.97,15.94 46.5533333,16 46.06,16 C45.4466667,16 44.9433333,15.91 44.55,15.73 C44.1566667,15.55 43.82,15.32 43.54,15.04 C43.3933333,14.88 43.3033333,14.7433333 43.27,14.63 C43.2366667,14.5166667 43.2066667,14.4066667 43.18,14.3 L43.18,14.3 L43.06,14.22 L42.94,14.4 L42.14,15.76 C42.4866667,16.08 42.8633333,16.3466667 43.27,16.56 C43.6766667,16.7733333 44.11,16.9333333 44.57,17.04 C45.03,17.1466667 45.5133333,17.2 46.02,17.2 Z" id="Path" fill="#000000" fill-rule="nonzero"></path>
        <path d="M62.46,17 L62.46,11.06 L67.32,11.06 L67.32,17 L68.8,17 L68.8,5.42 C68.8,5.19333333 68.81,5.03333333 68.83,4.94 C68.85,4.84666667 68.9,4.76 68.98,4.68 L68.98,4.68 L68.98,4.54 L67.34,4.54 L67.34,9.86 L62.46,9.86 L62.46,5.42 C62.46,5.19333333 62.47,5.03333333 62.49,4.94 C62.51,4.84666667 62.56,4.76 62.64,4.68 L62.64,4.68 L62.64,4.54 L61,4.54 L61,17 L62.46,17 Z" id="Path" fill="#000000" fill-rule="nonzero"></path>
        <path d="M75.18,7.64 C75.7,7.64 76.1866667,7.72666667 76.64,7.9 C77.0933333,8.07333333 77.4866667,8.33666667 77.82,8.69 C78.1533333,9.04333333 78.4166667,9.49333333 78.61,10.04 C78.8033333,10.5866667 78.9,11.2333333 78.9,11.98 C78.9,12.0866667 78.8966667,12.1966667 78.89,12.31 C78.8833333,12.4233333 78.8733333,12.5333333 78.86,12.64 L78.86,12.64 L72.36,12.64 L72.3794444,12.9269444 C72.422037,13.394537 72.5155556,13.8088889 72.66,14.17 C72.8333333,14.6033333 73.06,14.9566667 73.34,15.23 C73.62,15.5033333 73.9433333,15.7066667 74.31,15.84 C74.6766667,15.9733333 75.0666667,16.04 75.48,16.04 C75.8,16.04 76.1,16.0033333 76.38,15.93 C76.66,15.8566667 76.9233333,15.7433333 77.17,15.59 C77.4166667,15.4366667 77.64,15.2466667 77.84,15.02 L77.84,15.02 L78.64,15.8 L78.4836,15.9784 C78.2692,16.2088 78.0313333,16.4093333 77.77,16.58 C77.4433333,16.7933333 77.0866667,16.95 76.7,17.05 C76.3133333,17.15 75.8933333,17.2 75.44,17.2 C74.7733333,17.2 74.1666667,17.0966667 73.62,16.89 C73.0733333,16.6833333 72.6033333,16.38 72.21,15.98 C71.8166667,15.58 71.5133333,15.0833333 71.3,14.49 C71.0866667,13.8966667 70.98,13.22 70.98,12.46 C70.98,11.6866667 71.09,11 71.31,10.4 C71.53,9.8 71.83,9.29666667 72.21,8.89 C72.59,8.48333333 73.0366667,8.17333333 73.55,7.96 C74.0633333,7.74666667 74.6066667,7.64 75.18,7.64 Z M75.08,8.74 C74.76,8.74 74.4566667,8.79333333 74.17,8.9 C73.8833333,9.00666667 73.62,9.17666667 73.38,9.41 C73.14,9.64333333 72.9366667,9.93333333 72.77,10.28 C72.6033333,10.6266667 72.4866667,11.04 72.42,11.52 L72.42,11.52 L77.44,11.52 C77.44,11.0933333 77.3833333,10.71 77.27,10.37 C77.1566667,10.03 76.9966667,9.73666667 76.79,9.49 C76.5833333,9.24333333 76.3366667,9.05666667 76.05,8.93 C75.7633333,8.80333333 75.44,8.74 75.08,8.74 Z" id="Combined-Shape" fill="#000000" fill-rule="nonzero"></path>
        <path d="M82.84,17 L82.84,11.74 C82.84,11.3 82.9233333,10.9066667 83.09,10.56 C83.2566667,10.2133333 83.4733333,9.91666667 83.74,9.67 C84.0066667,9.42333333 84.2966667,9.23333333 84.61,9.1 C84.9233333,8.96666667 85.2333333,8.9 85.54,8.9 C85.86,8.9 86.1466667,8.98333333 86.4,9.15 C86.6533333,9.31666667 86.8533333,9.59 87,9.97 C87.1466667,10.35 87.22,10.86 87.22,11.5 L87.22,11.5 L87.22,17 L88.62,17 L88.62,11.46 C88.62,10.54 88.5,9.8 88.26,9.24 C88.02,8.68 87.7,8.27333333 87.3,8.02 C86.9,7.76666667 86.4466667,7.64 85.94,7.64 C85.5266667,7.64 85.1266667,7.71666667 84.74,7.87 C84.3533333,8.02333333 84,8.23666667 83.68,8.51 C83.36,8.78333333 83.08,9.10666667 82.84,9.48 L82.84,9.48 L82.84,7.86 L81.44,7.86 L81.44,17 L82.84,17 Z" id="Path" fill="#000000" fill-rule="nonzero"></path>
        <path d="M92.84,17.02 L92.84,12.16 C92.84,11.5866667 92.92,11.0933333 93.08,10.68 C93.24,10.2666667 93.4566667,9.92666667 93.73,9.66 C94.0033333,9.39333333 94.3066667,9.19666667 94.64,9.07 C94.9733333,8.94333333 95.3066667,8.88 95.64,8.88 C95.8666667,8.88 96.07,8.90333333 96.25,8.95 C96.43,8.99666667 96.6266667,9.08666667 96.84,9.22 C97.0133333,9.35333333 97.1266667,9.46666667 97.18,9.56 C97.2333333,9.65333333 97.2733333,9.75333333 97.3,9.86 L97.3,9.86 L97.44,9.94 L97.52,9.76 L98.16,8.64 C97.84,8.30666667 97.4766667,8.05666667 97.07,7.89 C96.6633333,7.72333333 96.22,7.64 95.74,7.64 C95.38,7.64 95.0333333,7.69666667 94.7,7.81 C94.3666667,7.92333333 94.06,8.09 93.78,8.31 C93.5,8.53 93.26,8.8 93.06,9.12 C92.98,9.248 92.9096,9.38346667 92.8488,9.5264 L92.842,9.543 L92.88,7.86 L91.38,7.86 L91.38,17.02 L92.84,17.02 Z" id="Path" fill="#000000" fill-rule="nonzero"></path>
        <path d="M102.98,5.94 C103.26,5.94 103.503333,5.84 103.71,5.64 C103.916667,5.44 104.02,5.2 104.02,4.92 C104.02,4.64 103.916667,4.39666667 103.71,4.19 C103.503333,3.98333333 103.26,3.88 102.98,3.88 C102.686667,3.88 102.443333,3.98 102.25,4.18 C102.056667,4.38 101.96,4.62666667 101.96,4.92 C101.96,5.2 102.06,5.44 102.26,5.64 C102.46,5.84 102.7,5.94 102.98,5.94 Z" id="Path" fill="#000000" fill-rule="nonzero"></path>
        <polygon id="Path" fill="#000000" fill-rule="nonzero" points="105.92 17 105.92 15.84 103.78 15.84 103.78 7.86 100.12 7.86 100.12 9.02 102.34 9.02 102.34 15.84 100 15.84 100 17"></polygon>
        <path d="M112.7,17.22 C113.34,17.22 113.936667,17.1 114.49,16.86 C115.043333,16.62 115.546667,16.26 116,15.78 L116,15.78 L115.16,14.8 C114.946667,15.04 114.713333,15.2433333 114.46,15.41 C114.206667,15.5766667 113.94,15.7033333 113.66,15.79 C113.38,15.8766667 113.086667,15.92 112.78,15.92 C112.326667,15.92 111.903333,15.83 111.51,15.65 C111.116667,15.47 110.78,15.22 110.5,14.9 C110.22,14.58 110,14.2033333 109.84,13.77 C109.68,13.3366667 109.6,12.86 109.6,12.34 C109.6,11.82 109.68,11.3466667 109.84,10.92 C110,10.4933333 110.216667,10.13 110.49,9.83 C110.763333,9.53 111.073333,9.3 111.42,9.14 C111.766667,8.98 112.133333,8.9 112.52,8.9 C112.96,8.9 113.346667,8.95333333 113.68,9.06 C114.013333,9.16666667 114.326667,9.35333333 114.62,9.62 C114.78,9.78 114.883333,9.90666667 114.93,10 C114.976667,10.0933333 115,10.1933333 115,10.3 L115,10.3 L115.1,10.4 L115.24,10.26 L116.14,9.38 C115.766667,8.84666667 115.283333,8.43 114.69,8.13 C114.096667,7.83 113.426667,7.68 112.68,7.68 C112.026667,7.68 111.42,7.8 110.86,8.04 C110.3,8.28 109.816667,8.61333333 109.41,9.04 C109.003333,9.46666667 108.686667,9.97 108.46,10.55 C108.233333,11.13 108.12,11.76 108.12,12.44 C108.12,13.1333333 108.233333,13.77 108.46,14.35 C108.686667,14.93 109.003333,15.4333333 109.41,15.86 C109.816667,16.2866667 110.3,16.62 110.86,16.86 C111.42,17.1 112.033333,17.22 112.7,17.22 Z" id="Path" fill="#000000" fill-rule="nonzero"></path>
        <path d="M119.86,17 L119.86,11.74 C119.86,11.38 119.913333,11.0533333 120.02,10.76 C120.126667,10.4666667 120.273333,10.2033333 120.46,9.97 C120.646667,9.73666667 120.856667,9.54 121.09,9.38 C121.323333,9.22 121.566667,9.1 121.82,9.02 C122.073333,8.94 122.32,8.9 122.56,8.9 C122.88,8.9 123.166667,8.98333333 123.42,9.15 C123.673333,9.31666667 123.873333,9.59 124.02,9.97 C124.166667,10.35 124.24,10.86 124.24,11.5 L124.24,11.5 L124.24,17 L125.64,17 L125.64,11.46 C125.64,10.54 125.523333,9.8 125.29,9.24 C125.056667,8.68 124.73,8.27333333 124.31,8.02 C123.89,7.76666667 123.406667,7.64 122.86,7.64 C122.486667,7.64 122.116667,7.71666667 121.75,7.87 C121.383333,8.02333333 121.036667,8.23666667 120.71,8.51 C120.383333,8.78333333 120.1,9.10666667 119.86,9.48 L119.86,9.48 L119.86,4.58 C119.86,4.35333333 119.87,4.19333333 119.89,4.1 C119.91,4.00666667 119.96,3.92 120.04,3.84 L120.04,3.84 L120.04,3.7 L118.46,3.7 L118.46,17 L119.86,17 Z" id="Path" fill="#000000" fill-rule="nonzero"></path>
    </g>
</svg>